# xmcd CD database file
#
# Track frame offsets:
#	150
#	14363
#	27309
#	43826
#	56023
#	64451
#	71941
#	85287
#	101155
#	113386
#	123561
#	134354
#
# Disc length: 1948 seconds
#
# Revision: 1
# Processed by: cddbd v1.5.2PL0 Copyright (c) Steve Scherf et al.
# Submitted via: CDex 1.70beta2
#
DISCID=b1079a0c
DTITLE=J.B.Lenoir - Alabama Blues
DYEAR=1965
DGENRE=Blues
TTITLE0=Alabama Blues
TTITLE1=The Mojo Boogie
TTITLE2=God's Word
TTITLE3=The Whale Has Swallowed Me
TTITLE4=Movet His Rope
TTITLE5=I Feel So Good
TTITLE6=Alaba March
TTITLE7=Talk To Your Daughter
TTITLE8=Missisippi Road
TTITLE9=Good Advice
TTITLE10=Vietnam
TTITLE11=I Want To Go
EXTD=YEAR: 1965
EXTT0=
EXTT1=
EXTT2=
EXTT3=
EXTT4=
EXTT5=
EXTT6=
EXTT7=
EXTT8=
EXTT9=
EXTT10=
EXTT11=
PLAYORDER=
